<?xml version="1.0" encoding="utf-8"?>
<!-- Generator: Adobe Illustrator 23.0.3, SVG Export Plug-In . SVG Version: 6.00 Build 0)  -->
<svg version="1.1" id="Layer_1" xmlns="http://www.w3.org/2000/svg" xmlns:xlink="http://www.w3.org/1999/xlink" x="0px" y="0px"
	 viewBox="0 0 305 115" style="enable-background:new 0 0 305 115;" xml:space="preserve">
<path style="fill:#020203;" d="M187.5,88.5c-3.8,0-7,3.1-7,7c0,3.8,3.1,7,7,7s7-3.1,7-7C194.4,91.7,191.3,88.5,187.5,88.5z
	 M187.5,97.8c-1.3,0-2.3-1-2.3-2.3c0-1.3,1-2.3,2.3-2.3s2.3,1,2.3,2.3C189.8,96.8,188.7,97.8,187.5,97.8z"/>
<path style="fill:#020203;" d="M275.7,88.5c-3.8,0-7,3.1-7,7c0,3.8,3.1,7,7,7s7-3.1,7-7C282.7,91.7,279.6,88.5,275.7,88.5z
	 M275.7,97.8c-1.3,0-2.3-1-2.3-2.3c0-1.3,1-2.3,2.3-2.3c1.3,0,2.3,1,2.3,2.3C278,96.8,277,97.8,275.7,97.8z"/>
<path style="fill:#020203;" d="M303.2,57.1l-20.9-32.5c-0.4-0.7-1.2-1.1-2-1.1h-27.9V10.7c0-4.5-3.6-8.1-8.1-8.1h-76.6
	c-4.5,0-8.1,3.6-8.1,8.1v84.8c0,1.3,1,2.3,2.3,2.3h9.5c1.3,8.9,9.5,15.1,18.4,13.8c7.1-1,12.7-6.6,13.8-13.8h56.1
	c1.3,8.9,9.5,15.1,18.4,13.8c7.1-1,12.7-6.6,13.8-13.8h9.5c1.3,0,2.3-1,2.3-2.3V58.3C303.6,57.9,303.5,57.5,303.2,57.1z
	 M187.5,107.1c-6.4,0-11.6-5.2-11.6-11.6c0-6.4,5.2-11.6,11.6-11.6c6.4,0,11.6,5.2,11.6,11.6C199.1,101.9,193.9,107.1,187.5,107.1z
	 M247.9,93.2h-44.3c-1.3-8.9-9.5-15.1-18.4-13.8c-7.1,1-12.7,6.6-13.8,13.8h-7.1V70h83.6V93.2z M247.9,65.3h-83.6V10.7
	c0-1.9,1.6-3.5,3.5-3.5h76.6c1.9,0,3.5,1.6,3.5,3.5V65.3z M283.6,35.1L297,56h-32.9V35.1H283.6z M275.7,107.1
	c-6.4,0-11.6-5.2-11.6-11.6c0-6.4,5.2-11.6,11.6-11.6s11.6,5.2,11.6,11.6C287.3,101.9,282.1,107.1,275.7,107.1z M298.9,74.6h-4.6
	c-1.3,0-2.3-1-2.3-2.3c0-1.3,1-2.3,2.3-2.3h4.6V74.6z M298.9,65.3h-4.6c-3.8,0-7,3.1-7,7c0,3.8,3.1,7,7,7h4.6v13.9h-7.1
	c-1.3-8.9-9.5-15.1-18.4-13.8c-7.1,1-12.7,6.6-13.8,13.8h-7.1v-65h26.6l1.5,2.3h-18.8c-1.3,0-2.3,1-2.3,2.3v25.5
	c0,1.3,1,2.3,2.3,2.3h37.2V65.3z"/>
<path style="fill:#EDAA9A;" d="M268.8,65.3h-7c-1.3,0-2.3,1-2.3,2.3s1,2.3,2.3,2.3h7c1.3,0,2.3-1,2.3-2.3S270,65.3,268.8,65.3z"/>
<path style="fill:#EDAA9A;" d="M220,79.2h18.6c1.3,0,2.3-1,2.3-2.3s-1-2.3-2.3-2.3H220c-1.3,0-2.3,1-2.3,2.3S218.7,79.2,220,79.2z"
	/>
<path style="fill:#EDAA9A;" d="M238.6,81.6h-7c-1.3,0-2.3,1-2.3,2.3s1,2.3,2.3,2.3h7c1.3,0,2.3-1,2.3-2.3S239.8,81.6,238.6,81.6z"/>
<g>
	<g>
		
			<line style="fill:none;stroke:#EDAA9A;stroke-width:2;stroke-linecap:round;stroke-miterlimit:10;" x1="107.9" y1="57.7" x2="138.5" y2="57.7"/>
		<g>
			<polygon style="fill:#EDAA9A;" points="134.5,61.1 137.9,57.7 134.5,54.3 137.4,54.3 140.8,57.7 137.4,61.1 			"/>
		</g>
	</g>
</g>
<line style="fill:none;stroke:#010202;stroke-width:2;stroke-linecap:round;stroke-linejoin:round;stroke-miterlimit:10;" x1="100.5" y1="50.7" x2="126" y2="50.7"/>
<line style="fill:none;stroke:#010202;stroke-width:2;stroke-linecap:round;stroke-linejoin:round;stroke-miterlimit:10;" x1="100.5" y1="64.7" x2="126" y2="64.7"/>
<g>
	<path style="fill:#EDAA9A;" d="M69.2,91.3c-0.1-0.1-0.2-0.2-0.3-0.4c0,0,0,0,0,0c-0.7-0.8-0.6-1.6-0.2-2.2c0,0,0,0,0,0
		c0,0,0,0,0-0.1c0,0,0,0,0,0c0,0,0,0,0,0c0,0,0,0,0,0c0,0,0,0,0,0c0,0,0,0,0,0c0,0,0,0,0,0c0,0,0,0,0,0c0,0,0,0,0,0c0,0,0,0,0,0
		c0,0,0,0,0,0c0,0,0,0,0.1-0.1c0,0,0,0,0,0c0.7-0.5,0.8-1.1,0.6-1.6c-0.3-0.6-0.9-1-1.5-0.7c-0.3,0.1-0.5,0.6-1.1,0.8
		c0,0-0.1,0-0.1,0c-0.1,0-0.1,0-0.2,0c0,0,0,0,0,0c-0.4,0-0.8-0.3-0.8-0.6c-0.2-1.1,1.5-2,1.4-3c-0.2-1.5-2.4-1.7-2.5-0.2
		c-0.2,1.6-0.9,2.3-2,1.8c-0.8-0.4-1.5-0.2-1.7,0.5c-0.2,0.7,0.3,1.1,0.6,1.5c0,0,0,0,0,0c0,0,0,0,0,0c0,0,0,0,0,0
		c0.6,0.8-0.3,1.9-1.3,1.4c-0.2-0.1-0.4-0.2-0.5-0.5c0,0-0.1-0.1-0.1-0.1c0,0,0,0,0,0c0,0,0-0.1-0.1-0.1c0,0,0,0,0,0
		c0,0,0,0-0.1-0.1c0,0-0.1-0.1-0.1-0.1c0,0,0,0,0,0c0,0,0,0-0.1-0.1c0,0,0,0,0,0c0,0-0.1,0-0.1-0.1c0,0,0,0,0,0
		c-1.1-0.9-2.1-0.6-2.2,0.5c-0.1,0.9,0.7,1.2,1.5,1.6c0,0,0,0,0.1,0c0,0,0,0,0,0c0,0,0.1,0,0.1,0c0,0,0,0,0,0c0,0,0.1,0,0.1,0
		c0,0,0,0,0,0c0,0,0.1,0,0.1,0.1c0,0,0,0,0,0c0,0,0.1,0,0.1,0.1c0,0,0,0,0,0c0,0,0.1,0,0.1,0.1c0,0,0,0,0,0c0,0,0.1,0,0.1,0.1
		c0,0,0,0,0,0c0,0,0.1,0,0.1,0.1c0,0,0,0,0,0c0,0,0.1,0,0.1,0.1c0,0,0,0,0,0c0,0,0,0.1,0.1,0.1c0,0,0,0,0,0c0,0,0,0.1,0.1,0.1
		c0,0,0,0,0,0c0,0,0,0.1,0.1,0.1c0,0,0,0,0,0c0.5,1-1.5,1.7-1.1,3.7c0,0,0,0,0,0c0,0,0,0,0,0.1c0,0,0,0,0,0.1c0,0,0,0,0,0
		c0,0,0,0,0,0.1c0,0,0,0,0,0c0,0,0,0,0,0.1c0,0,0,0,0,0c0,0,0,0.1,0,0.1c0,0,0,0,0,0c0,0,0,0.1,0,0.1c0,0,0,0,0,0
		c0.9,1.9,3.6,1.5,4.3,0.1c1.7-3.3,3.4-1.1,4.1-0.4C68.4,95.4,71.7,93.6,69.2,91.3z"/>
	<path style="fill:#EDAA9A;" d="M58.4,83.1c0.5-0.7-0.4-3.1-1.9-3c-0.9,0-1.5,1.2-0.6,2.3C56.6,83.3,57.9,83.7,58.4,83.1z"/>
	<path style="fill:#EDAA9A;" d="M61.4,82.1c0.7,0.5,1.1,0.2,1.1-0.3c0-0.3-0.2-1.4-0.9-1.2C60.8,80.8,60.7,81.6,61.4,82.1z"/>
	<path style="fill:#EDAA9A;" d="M70,82.1c-0.9,0.1-1.2,2.1-0.3,2C70.5,83.9,71.6,81.9,70,82.1z"/>
	<path style="fill:#EDAA9A;" d="M70.5,95.8c-0.3,0.9,1.2,2,1.8,0.7C72.8,95.5,70.9,94.7,70.5,95.8z"/>
</g>
<g>
	<path style="fill:#EDAA9A;" d="M28.3,56.8c0.4,0.3,0.7,0.3,1,0.1c0,0,0.1-0.1,0.1-0.1c0.1-0.1,0.1-0.1,0.2-0.2
		c0.2-0.5-0.1-0.8-0.3-1.1c0,0,0,0,0,0c0,0,0,0,0,0c0,0,0,0,0,0c-0.3-0.6,0.5-1.3,1.1-0.9c0.1,0.1,0.2,0.2,0.3,0.4
		c0,0,0,0.1,0.1,0.1c0,0,0,0,0,0c0,0,0,0,0,0.1c0,0,0,0,0,0c0,0,0,0,0,0.1c0,0,0,0.1,0.1,0.1c0,0,0,0,0,0c0,0,0,0,0,0.1c0,0,0,0,0,0
		c0,0,0,0,0,0.1c0,0,0,0,0,0c0,0,0,0,0,0c0.4-0.4,0.8-0.7,1.2-1.1c-0.2-0.1-0.3-0.2-0.5-0.4c0,0,0,0,0,0c0,0,0,0,0,0c0,0,0,0-0.1,0
		c0,0,0,0,0,0c0,0,0,0-0.1,0c0,0,0,0,0,0c0,0,0,0-0.1,0c0,0,0,0,0,0c0,0,0,0-0.1,0c0,0,0,0,0,0c0,0,0,0-0.1-0.1c0,0,0,0,0,0
		c0,0,0,0-0.1-0.1c0,0,0,0,0,0c0,0,0,0,0-0.1c0,0,0,0,0,0c0,0,0,0,0-0.1c0,0,0,0,0,0c0,0,0,0,0-0.1c0,0,0,0,0,0c0,0,0,0,0-0.1
		c0,0,0,0,0,0c0,0,0,0,0-0.1c0,0,0,0,0,0c-0.2-0.7,1.3-1,1.2-2.5c0,0,0,0,0,0c0,0,0,0,0,0c0,0,0,0,0,0c0,0,0,0,0,0c0,0,0,0,0,0
		c0,0,0,0,0,0c0,0,0,0,0-0.1c0,0,0,0,0,0c0,0,0,0,0-0.1c0,0,0,0,0,0c0,0,0,0,0-0.1c0,0,0,0,0,0c-0.4-1.4-2.4-1.5-3-0.6
		c-1.6,2.2-2.6,0.4-2.9-0.2c-0.8-1.2-3.4-0.3-1.9,1.6c0.1,0.1,0.1,0.2,0.2,0.3c0,0,0,0,0,0c0.4,0.6,0.3,1.2-0.1,1.6c0,0,0,0,0,0
		c0,0,0,0,0,0c0,0,0,0,0,0c0,0,0,0,0,0c0,0,0,0,0,0c0,0,0,0,0,0c0,0,0,0,0,0c0,0,0,0,0,0c0,0,0,0,0,0c0,0,0,0,0,0c0,0,0,0,0,0
		c0,0,0,0,0,0c0,0,0,0-0.1,0c0,0,0,0,0,0c-0.6,0.3-0.7,0.7-0.6,1.1c0.1,0.5,0.6,0.8,1,0.7c0.2-0.1,0.4-0.4,0.9-0.4c0,0,0,0,0.1,0
		c0.1,0,0.1,0,0.2,0c0,0,0,0,0,0c0.3,0.1,0.5,0.3,0.5,0.6c0,0.8-1.3,1.2-1.3,2c0,0.1,0,0.2,0.1,0.3c0.2,0.2,0.5,0.5,0.7,0.7
		c0.4,0.1,0.9,0,1-0.6C27,56.7,27.6,56.3,28.3,56.8z"/>
	<path style="fill:#EDAA9A;" d="M24.1,48.1c0.3-0.6-0.6-1.5-1.2-0.7C22.5,48,23.7,48.8,24.1,48.1z"/>
</g>
<g>
	<path d="M80.2,89.9c0.8,0,1.5-0.7,1.5-1.5V29c0-3.2-2.3-5.9-5.4-6.4l-10.1-1.8c-1.1-4.1-3.3-7.5-6.8-10.1C55.1,7.4,49,5.7,42.1,5.7
		c-7,0-13,1.7-17.4,5.1c-3.4,2.6-5.7,6-6.8,10.1L7.6,22.6c-3.1,0.5-5.4,3.2-5.4,6.4v75.2c0,2.5,2,4.5,4.5,4.5h70.5
		c2.5,0,4.5-2,4.5-4.5v-8.7c0-0.8-0.7-1.5-1.5-1.5c-0.8,0-1.5,0.7-1.5,1.5v8.7c0,0.8-0.7,1.5-1.5,1.5H50.5V54.1l4.2,3.9
		c0.9,0.8,2.1,1.1,3.3,0.8c1.2-0.3,2.1-1.2,2.4-2.4l5.5-18.7c1.1-3.4,1-7.8,1-11.4c0-0.8,0-1.6-0.1-2.4l9,1.6
		c1.7,0.3,2.9,1.7,2.9,3.4v59.4C78.7,89.2,79.4,89.9,80.2,89.9L80.2,89.9z M42.1,8.7c10.5,0,21.7,4.6,21.8,17.4l-0.2,0.4
		c-3.6-7.1-11.4-11.3-21.7-11.3c-8.1,0-14.9,2.6-19.1,7.4c-0.5,0.6-0.5,1.6,0.1,2.1c0.6,0.5,1.6,0.5,2.1-0.1
		c3.6-4.1,9.6-6.4,16.8-6.4c9.9,0,17.3,4.3,19.8,11.6c-1.1,1.4-2.4,2.6-3.9,3.4l-15.9,9.2l-15.9-9.2c-2.5-1.5-4.5-3.7-5.6-6.4
		l-0.3-0.7C20.4,13.2,31.6,8.7,42.1,8.7L42.1,8.7z M27.4,55.8c-0.2,0.2-0.4,0.1-0.5,0.1c-0.1,0-0.3-0.1-0.3-0.3l-5.5-18.7
		c-0.5-1.6-0.7-3.2-0.8-4.8c1.2,1.5,2.7,2.7,4.4,3.7l14.9,8.6C39.6,44.4,27.8,55.5,27.4,55.8L27.4,55.8z M5.2,104.2v-8.1h18.1
		c4,0,7.3-3.3,7.3-7.3V68.2c0-1.9-1.6-3.5-3.5-3.5H14c-0.8,0-1.5,0.7-1.5,1.5s0.7,1.5,1.5,1.5h13.1c0.3,0,0.5,0.2,0.5,0.5v20.7
		c0,2.4-1.9,4.3-4.3,4.3H5.2V67.7h1.6c0.8,0,1.5-0.7,1.5-1.5s-0.7-1.5-1.5-1.5H5.2V29c0-1.7,1.2-3.2,2.9-3.4l9.2-1.6
		c-0.1,0.8-0.1,1.6-0.1,2.4c0,3.6-0.2,7.9,1,11.4l5.5,18.7c0.3,1.2,1.3,2.1,2.4,2.4c1.2,0.3,2.4,0,3.3-0.8l4-3.8v51.5H6.7
		C5.9,105.7,5.2,105,5.2,104.2L5.2,104.2z M47.5,105.7h-11V51.4l5.6-5.2l5.4,5.1V105.7z M63,36.8l-5.5,18.7
		c-0.1,0.2-0.2,0.3-0.3,0.3c-0.1,0-0.3,0-0.5-0.1L44.5,44.4l14.9-8.6c1.7-1,3.2-2.2,4.4-3.7C63.8,33.7,63.5,35.3,63,36.8L63,36.8z
		 M63,36.8"/>
	<path d="M44.1,56.3c0,1.2-1,2.2-2.2,2.2c-1.2,0-2.2-1-2.2-2.2s1-2.2,2.2-2.2C43.2,54.1,44.1,55.1,44.1,56.3L44.1,56.3z M44.1,56.3"
		/>
	<path d="M44.1,74.1c0,1.2-1,2.2-2.2,2.2c-1.2,0-2.2-1-2.2-2.2c0-1.2,1-2.2,2.2-2.2C43.2,72,44.1,72.9,44.1,74.1L44.1,74.1z
		 M44.1,74.1"/>
	<path d="M44.1,92c0,1.2-1,2.2-2.2,2.2c-1.2,0-2.2-1-2.2-2.2s1-2.2,2.2-2.2C43.2,89.8,44.1,90.8,44.1,92L44.1,92z M44.1,92"/>
</g>
</svg>
