<?xml version="1.0" encoding="utf-8"?>
<!-- Generator: Adobe Illustrator 23.0.3, SVG Export Plug-In . SVG Version: 6.00 Build 0)  -->
<svg version="1.1" id="Layer_1" xmlns="http://www.w3.org/2000/svg" xmlns:xlink="http://www.w3.org/1999/xlink" x="0px" y="0px"
	 viewBox="0 0 305 115" style="enable-background:new 0 0 305 115;" xml:space="preserve">
<g>
	<path style="fill:#B5D2C5;" d="M240.3,53c-0.3-0.1-1.5,0.2-2.7-0.5c-0.2-0.1-0.5,0-0.7,0.2c-0.1,0.2,0,0.5,0.2,0.7
		c0.1,0.1,0.2,0.1,0.3,0.1c-1,0.4-1.8,1.2-2.3,2.4c-0.4-1.1-1.2-1.9-2.3-2.4c1.1-0.5,1.8-1.3,2.3-2.4c0.1,0.2,0.2,0.4,0.2,0.4
		c0.1,0.2,0.4,0.3,0.7,0.2c0.2-0.1,0.3-0.4,0.2-0.7c0,0-0.6-1.1-0.5-2.5c0-0.3-0.1-0.5-0.4-0.6c-0.3-0.1-0.5,0.1-0.6,0.4
		c0,0.2,0.2,2.8-1.7,4c-1.2,0.8-2.7,0.5-2.9,0.6c-0.6,0.1-0.6,0.9,0,1c0.3,0.1,1.7-0.2,2.9,0.6c1.8,1.2,1.6,3.8,1.7,3.9
		c0,0.6,0.9,0.7,1,0.1c0.1-0.2-0.2-2.7,1.6-4c1.2-0.8,2.7-0.6,2.9-0.7C240.8,54,240.9,53.2,240.3,53z"/>
	<path style="fill:#B5D2C5;" d="M288.1,98.2c0-0.3-0.2-2.2,0.8-4.1c0.2-0.4,0-0.8-0.3-1c-0.4-0.2-0.8,0-1,0.3
		c-0.1,0.2-0.2,0.4-0.3,0.6c-0.7-1.7-1.8-2.9-3.5-3.7c1.7-0.7,2.8-2,3.5-3.7c0.7,1.6,1.8,2.9,3.5,3.7c-0.2,0.1-0.3,0.2-0.5,0.2
		c-0.4,0.2-0.5,0.6-0.3,1c0.2,0.4,0.6,0.5,1,0.3c1.8-1,3.7-0.7,4.1-0.7c0.9-0.1,1-1.4,0.1-1.6c-0.5-0.1-4.5,0.6-6.3-3
		c-0.8-1.7-0.8-3.5-0.8-3.8c0.1-0.4-0.2-0.8-0.7-0.9c-0.4-0.1-0.8,0.2-0.9,0.6c-0.1,0.2,0.3,4.3-2.6,6.1c-1.8,1.2-4,0.9-4.4,0.9
		c-0.9,0.1-1,1.4-0.1,1.6c0.4,0.1,2.6-0.3,4.5,1c2,1.3,2.5,3.8,2.5,5.1c0,0.8,0,0.9,0,1c0.1,0.3,0.4,0.6,0.8,0.6
		C287.7,98.9,288.1,98.6,288.1,98.2z"/>
	<g>
		<path d="M302.2,90.5c0.8,0,1.5-0.7,1.5-1.5V29.6c0-3.2-2.3-5.9-5.4-6.4l-10.1-1.8c-1.1-4.1-3.3-7.5-6.8-10.1
			C277,8,271,6.3,264,6.3c-7,0-13,1.7-17.4,5.1c-3.4,2.6-5.7,6-6.8,10.1l-10.3,1.8c-3.1,0.5-5.4,3.2-5.4,6.4v75.2
			c0,2.5,2,4.5,4.5,4.5h70.5c2.5,0,4.5-2,4.5-4.5v-8.7c0-0.8-0.7-1.5-1.5-1.5c-0.8,0-1.5,0.7-1.5,1.5v8.7c0,0.8-0.7,1.5-1.5,1.5
			h-26.7V54.7l4.2,3.9c0.9,0.8,2.1,1.1,3.3,0.8c1.2-0.3,2.1-1.2,2.4-2.4l5.5-18.7c1.1-3.4,1-7.8,1-11.4c0-0.8,0-1.6-0.1-2.4l9,1.6
			c1.7,0.3,2.9,1.7,2.9,3.4V89C300.7,89.8,301.3,90.5,302.2,90.5L302.2,90.5z M264,9.3c10.5,0,21.7,4.6,21.8,17.4l-0.2,0.4
			c-3.6-7.1-11.4-11.3-21.7-11.3c-8.1,0-14.9,2.6-19.1,7.4c-0.5,0.6-0.5,1.6,0.1,2.1s1.6,0.5,2.1-0.1c3.6-4.1,9.6-6.4,16.8-6.4
			c9.9,0,17.3,4.3,19.8,11.6c-1.1,1.4-2.4,2.6-3.9,3.4L264,43l-15.9-9.2c-2.5-1.5-4.5-3.7-5.6-6.4l-0.3-0.7
			C242.4,13.9,253.5,9.3,264,9.3L264,9.3z M249.4,56.4c-0.2,0.2-0.4,0.1-0.5,0.1c-0.1,0-0.3-0.1-0.3-0.3L243,37.5
			c-0.5-1.6-0.7-3.2-0.8-4.8c1.2,1.5,2.7,2.7,4.4,3.7l14.9,8.6C261.5,45,249.8,56.1,249.4,56.4L249.4,56.4z M227.2,104.8v-8.1h18.1
			c4,0,7.3-3.3,7.3-7.3V68.8c0-1.9-1.6-3.5-3.5-3.5H236c-0.8,0-1.5,0.7-1.5,1.5c0,0.8,0.7,1.5,1.5,1.5h13.1c0.3,0,0.5,0.2,0.5,0.5
			v20.7c0,2.4-1.9,4.3-4.3,4.3h-18.1V68.3h1.6c0.8,0,1.5-0.7,1.5-1.5c0-0.8-0.7-1.5-1.5-1.5h-1.6V29.6c0-1.7,1.2-3.2,2.9-3.4
			l9.2-1.6c-0.1,0.8-0.1,1.6-0.1,2.4c0,3.6-0.2,7.9,1,11.4l5.5,18.7c0.3,1.2,1.3,2.1,2.4,2.4c1.2,0.3,2.4,0,3.3-0.8l4-3.8v51.5
			h-26.7C227.9,106.3,227.2,105.7,227.2,104.8L227.2,104.8z M269.4,106.3h-11V52l5.6-5.2l5.4,5.1V106.3z M285,37.5l-5.5,18.7
			c-0.1,0.2-0.2,0.3-0.3,0.3c-0.1,0-0.3,0-0.5-0.1L266.5,45l14.9-8.6c1.7-1,3.2-2.2,4.4-3.7C285.8,34.3,285.5,35.9,285,37.5
			L285,37.5z M285,37.5"/>
		<path d="M266.1,56.9c0,1.2-1,2.2-2.2,2.2c-1.2,0-2.2-1-2.2-2.2s1-2.2,2.2-2.2C265.1,54.8,266.1,55.7,266.1,56.9L266.1,56.9z
			 M266.1,56.9"/>
		<path d="M266.1,74.8c0,1.2-1,2.2-2.2,2.2c-1.2,0-2.2-1-2.2-2.2c0-1.2,1-2.2,2.2-2.2C265.1,72.6,266.1,73.6,266.1,74.8L266.1,74.8z
			 M266.1,74.8"/>
		<path d="M266.1,92.6c0,1.2-1,2.2-2.2,2.2c-1.2,0-2.2-1-2.2-2.2s1-2.2,2.2-2.2C265.1,90.4,266.1,91.4,266.1,92.6L266.1,92.6z
			 M266.1,92.6"/>
	</g>
</g>
<g>
	<path style="fill:#020203;" d="M30.2,89.2c-3.8,0-7,3.1-7,7s3.1,7,7,7s7-3.1,7-7C37.2,92.3,34,89.2,30.2,89.2z M30.2,98.5
		c-1.3,0-2.3-1-2.3-2.3s1-2.3,2.3-2.3c1.3,0,2.3,1,2.3,2.3C32.5,97.4,31.5,98.5,30.2,98.5z"/>
	<path style="fill:#020203;" d="M118.4,89.2c-3.8,0-7,3.1-7,7s3.1,7,7,7c3.8,0,7-3.1,7-7C125.4,92.3,122.3,89.2,118.4,89.2z
		 M118.4,98.5c-1.3,0-2.3-1-2.3-2.3s1-2.3,2.3-2.3c1.3,0,2.3,1,2.3,2.3C120.8,97.4,119.7,98.5,118.4,98.5z"/>
	<path style="fill:#020203;" d="M145.9,57.7L125,25.2c-0.4-0.7-1.2-1.1-2-1.1H95.2V11.4c0-4.5-3.6-8.1-8.1-8.1H10.4
		c-4.5,0-8.1,3.6-8.1,8.1v84.8c0,1.3,1,2.3,2.3,2.3h9.5c1.3,8.9,9.5,15.1,18.4,13.8c7.1-1,12.7-6.6,13.8-13.8h56.1
		c1.3,8.9,9.5,15.1,18.4,13.8c7.1-1,12.7-6.6,13.8-13.8h9.5c1.3,0,2.3-1,2.3-2.3V59C146.3,58.5,146.2,58.1,145.9,57.7z M30.2,107.7
		c-6.4,0-11.6-5.2-11.6-11.6s5.2-11.6,11.6-11.6s11.6,5.2,11.6,11.6C41.8,102.5,36.6,107.7,30.2,107.7z M90.6,93.8H46.3
		C45,84.9,36.8,78.8,27.9,80c-7.1,1-12.7,6.6-13.8,13.8H7V70.6h83.6V93.8z M90.6,65.9H7V11.4c0-1.9,1.6-3.5,3.5-3.5h76.6
		c1.9,0,3.5,1.6,3.5,3.5V65.9z M126.3,35.7l13.4,20.9h-32.9V35.7H126.3z M118.4,107.7c-6.4,0-11.6-5.2-11.6-11.6s5.2-11.6,11.6-11.6
		c6.4,0,11.6,5.2,11.6,11.6C130.1,102.5,124.9,107.7,118.4,107.7z M141.7,75.2H137c-1.3,0-2.3-1-2.3-2.3s1-2.3,2.3-2.3h4.6V75.2z
		 M141.7,65.9H137c-3.8,0-7,3.1-7,7s3.1,7,7,7h4.6v13.9h-7.1c-1.3-8.9-9.5-15.1-18.4-13.8c-7.1,1-12.7,6.6-13.8,13.8h-7.1v-65h26.6
		l1.5,2.3h-18.8c-1.3,0-2.3,1-2.3,2.3V59c0,1.3,1,2.3,2.3,2.3h37.2V65.9z"/>
	<path style="fill:#B5D2C5;" d="M111.5,65.9h-7c-1.3,0-2.3,1-2.3,2.3c0,1.3,1,2.3,2.3,2.3h7c1.3,0,2.3-1,2.3-2.3
		C113.8,67,112.8,65.9,111.5,65.9z"/>
	<path style="fill:#B5D2C5;" d="M62.7,79.9h18.6c1.3,0,2.3-1,2.3-2.3c0-1.3-1-2.3-2.3-2.3H62.7c-1.3,0-2.3,1-2.3,2.3
		C60.4,78.8,61.4,79.9,62.7,79.9z"/>
	<path style="fill:#B5D2C5;" d="M81.3,82.2h-7c-1.3,0-2.3,1-2.3,2.3c0,1.3,1,2.3,2.3,2.3h7c1.3,0,2.3-1,2.3-2.3
		C83.6,83.2,82.6,82.2,81.3,82.2z"/>
</g>
<g>
	<g>
		
			<line style="fill:none;stroke:#B5D2C5;stroke-width:2;stroke-linecap:round;stroke-miterlimit:10;" x1="172.5" y1="58.3" x2="203.1" y2="58.3"/>
		<g>
			<polygon style="fill:#B5D2C5;" points="199.1,61.7 202.5,58.3 199.1,54.9 202,54.9 205.4,58.3 202,61.7 			"/>
		</g>
	</g>
</g>
<line style="fill:none;stroke:#010202;stroke-width:2;stroke-linecap:round;stroke-linejoin:round;stroke-miterlimit:10;" x1="165.2" y1="51.3" x2="190.6" y2="51.3"/>
<line style="fill:none;stroke:#010202;stroke-width:2;stroke-linecap:round;stroke-linejoin:round;stroke-miterlimit:10;" x1="165.2" y1="65.3" x2="190.6" y2="65.3"/>
</svg>
