<?xml version="1.0" encoding="utf-8"?>
<svg viewBox="0 0 25 25" xmlns="http://www.w3.org/2000/svg">
  <path style="stroke: rgb(0, 0, 0); paint-order: fill; fill: none; stroke-width: 3px;" d="M 7.22 1.482 L 18.44 1.534 L 23.563 7.886 L 23.46 23.614 L 1.584 23.512 L 1.532 7.886 L 7.22 1.482 Z" transform="matrix(0.9999999999999999, 0, 0, 0.9999999999999999, -1.7763568394002505e-15, 0)"/>
  <path style="stroke: rgb(0, 0, 0); fill: none; stroke-width: 3px;" d="M 7.322 1.659 L 12.753 8.985 L 18.235 1.915" transform="matrix(0.9999999999999999, 0, 0, 0.9999999999999999, -1.7763568394002505e-15, 0)"/>
  <path style="fill: rgb(216, 216, 216); stroke: rgb(0, 0, 0); stroke-width: 3px;" d="M 12.753 8.985 L 12.906 23.432" transform="matrix(0.9999999999999999, 0, 0, 0.9999999999999999, -1.7763568394002505e-15, 0)"/>
  <path style="stroke: rgb(0, 0, 0); fill: none;" d="M 6.041 14.364 L 10.191 14.364 L 10.241 19.18 L 6.042 19.18 L 6.041 14.364 Z" transform="matrix(0.9999999999999999, 0, 0, 0.9999999999999999, -1.7763568394002505e-15, 0)"/>
  <path style="stroke: rgb(0, 0, 0); fill: none;" d="M 15.57 14.159 L 19.669 14.159 L 19.617 18.975 L 15.571 18.975 L 15.57 14.159 Z" transform="matrix(0.9999999999999999, 0, 0, 0.9999999999999999, -1.7763568394002505e-15, 0)"/>
</svg>